<svg width="36" height="26" viewBox="0 0 36 26" fill="none" xmlns="http://www.w3.org/2000/svg">
<path d="M3.75897 3.7245C6.18648 1.25287 9.85976 0 14.675 0H16.4052V4.58087L15.0141 4.8425C12.6437 5.28775 10.9948 6.16362 10.1124 7.449C9.65195 8.14146 9.39081 8.93432 9.35453 9.75H14.675C15.1339 9.75 15.574 9.92121 15.8984 10.226C16.2229 10.5307 16.4052 10.944 16.4052 11.375V22.75C16.4052 24.5424 14.8532 26 12.9448 26H2.56338C2.10449 26 1.6644 25.8288 1.33992 25.524C1.01544 25.2193 0.833145 24.806 0.833145 24.375V16.25L0.838336 11.5066C0.822764 11.3263 0.49402 7.0525 3.75897 3.7245ZM31.9773 26H21.5959C21.137 26 20.6969 25.8288 20.3725 25.524C20.048 25.2193 19.8657 24.806 19.8657 24.375V16.25L19.8709 11.5066C19.8553 11.3263 19.5266 7.0525 22.7915 3.7245C25.219 1.25287 28.8923 0 33.7075 0H35.4378V4.58087L34.0467 4.8425C31.6762 5.28775 30.0273 6.16362 29.1449 7.449C28.6845 8.14146 28.4234 8.93432 28.3871 9.75H33.7075C34.1664 9.75 34.6065 9.92121 34.931 10.226C35.2555 10.5307 35.4378 10.944 35.4378 11.375V22.75C35.4378 24.5424 33.8857 26 31.9773 26Z" fill="#8A53FF"/>
</svg>
