<svg width="97" height="24" viewBox="0 0 97 24" fill="none" xmlns="http://www.w3.org/2000/svg">
<path d="M17.1191 7.06489H12.1891V22.8749H5.38905V7.06489H0.459045V1.62489H17.1191V7.06489ZM18.9891 5.87489H22.3891L24.2591 7.77889C25.5964 6.55489 27.2737 5.7502 29.2911 5.36489L29.6991 11.7909C29.1551 11.8136 28.4411 11.9496 27.5571 12.1989C26.6957 12.4482 26.1064 12.7656 25.7891 13.1509V22.8749H18.9891V5.87489ZM39.7971 5.36489C45.2371 5.36489 47.9571 7.23489 47.9571 10.9749V22.8749H44.5571L42.6191 20.9369C41.9617 21.7076 41.0664 22.3082 39.9331 22.7389C38.7997 23.1696 37.7231 23.3849 36.7031 23.3849C35.7057 23.3849 34.9011 23.3056 34.2891 23.1469C33.6771 22.9882 33.0764 22.7162 32.4871 22.3309C31.1951 21.5149 30.5491 19.9962 30.5491 17.7749C30.5491 13.6949 33.6317 11.6549 39.7971 11.6549H41.1571V10.4309C40.4317 10.3856 39.8311 10.3629 39.3551 10.3629C36.7937 10.3629 34.5951 10.6689 32.7591 11.2809L31.9431 6.41889C34.2097 5.71619 36.8277 5.36489 39.7971 5.36489ZM37.4171 17.0269V18.4209H38.8111C39.8084 18.4209 40.4431 18.3076 40.7151 18.0809C41.0097 17.8542 41.1571 17.5596 41.1571 17.1969V15.5989H39.7631C38.9471 15.5989 38.3464 15.6896 37.9611 15.8709C37.5984 16.0296 37.4171 16.4149 37.4171 17.0269ZM53.5801 22.8749L49.3301 5.87489H56.1301L58.0001 16.9249H58.3401L60.2101 5.87489H67.0101L62.7601 22.8749H53.5801ZM75.3241 17.0949V18.2849C76.0041 18.3529 76.6841 18.3869 77.3641 18.3869C79.4721 18.3869 81.6028 18.0469 83.7561 17.3669L84.5721 22.3649C82.0335 23.0449 79.5175 23.3849 77.0241 23.3849C73.8508 23.3849 71.5501 22.6482 70.1221 21.1749C68.7168 19.6789 68.0141 17.4122 68.0141 14.3749C68.0141 11.3376 68.7168 9.08219 70.1221 7.60889C71.5501 6.11289 73.8395 5.36489 76.9901 5.36489C80.1635 5.36489 82.3508 5.79559 83.5521 6.65689C84.7535 7.51819 85.3541 9.12759 85.3541 11.4849C85.3541 13.4796 84.6288 14.9189 83.1781 15.8029C81.7501 16.6642 79.1321 17.0949 75.3241 17.0949ZM75.3241 11.7569V13.1509H76.7181C77.5341 13.1509 78.1235 13.0716 78.4861 12.9129C78.8715 12.7316 79.0641 12.3349 79.0641 11.7229V10.3289H77.6701C76.8541 10.3289 76.2535 10.4196 75.8681 10.6009C75.5055 10.7596 75.3241 11.1449 75.3241 11.7569ZM94.7188 0.264893V18.0129C95.4441 18.1489 95.9994 18.2282 96.3848 18.2509L96.0788 23.2489C93.1774 23.2489 91.2621 23.0789 90.3328 22.7389C89.1768 22.3082 88.4628 21.7642 88.1908 21.1069C88.0094 20.6989 87.9188 20.2229 87.9188 19.6789V0.774895L94.7188 0.264893Z" fill="#8A53FF"/>
</svg>
