<svg width="64" height="27" viewBox="0 0 64 27" fill="none" xmlns="http://www.w3.org/2000/svg">
<path d="M1.63007 6.08505C1.75007 6.06505 1.87007 6.04505 2.01007 6.00505C2.57007 5.86505 3.27007 5.72505 4.11007 5.58505C4.95007 5.44505 5.79007 5.38505 6.67007 5.40505C6.85007 5.40505 7.01007 5.32505 7.13007 5.14505C7.23007 4.96505 7.27007 4.76505 7.23007 4.54505C9.85007 3.98505 12.4901 3.52505 15.1901 3.14505C14.9101 3.56505 14.6301 3.94505 14.4101 4.26505C14.0901 4.70505 13.7701 5.14505 13.4701 5.58505C13.1701 6.02505 12.8501 6.54505 12.4701 7.16505C12.0701 7.80505 11.5901 8.68505 11.0101 9.80505C10.4501 10.9451 9.85007 12.2251 9.25007 13.6451C8.63007 15.0851 8.23007 16.545 8.01007 18.025C7.81007 19.525 7.93007 20.5651 8.41007 21.1651C8.87007 21.625 9.47007 21.785 10.1901 21.6451C10.5701 21.525 10.7901 21.325 10.8301 21.005C10.8501 20.705 10.6901 20.4851 10.3101 20.365C10.1901 20.345 10.0901 20.3251 10.0101 20.3251C9.89007 20.3451 9.81007 20.3251 9.73007 20.305C9.65007 20.265 9.59007 20.1851 9.53007 20.0651C9.45007 19.8451 9.41007 19.565 9.39007 19.265C9.39007 18.965 9.41007 18.685 9.43007 18.445C9.77007 16.245 10.5701 13.9051 11.8301 11.425C13.0701 8.94505 14.3901 6.76505 15.7501 4.84505C15.7901 4.80505 15.8301 4.74505 15.8701 4.68505L16.3901 3.96505C16.6101 3.68505 16.8101 3.42505 17.0301 3.20505C17.2301 2.96505 17.4101 2.84505 17.5501 2.82505L19.7901 2.54505C21.2701 2.36505 22.6501 2.20505 23.9501 2.10505C25.2501 2.00505 26.8301 1.96505 28.6901 2.00505C28.8301 2.00505 28.9501 2.00505 29.0901 2.02505C29.2101 2.04505 29.3501 2.06505 29.4701 2.06505C29.7701 2.04505 29.9901 1.96505 30.1501 1.78505C30.2901 1.60505 30.3501 1.42505 30.3101 1.22505C30.2701 1.00505 30.1101 0.86505 29.8301 0.76505C29.2301 0.60505 28.2901 0.54505 27.0101 0.60505C25.7301 0.64505 24.4101 0.72505 23.0101 0.86505C21.6301 0.98505 20.4901 1.10505 19.5901 1.20505C19.3101 1.24505 19.0901 1.26505 18.9101 1.28505C18.9301 0.80505 18.7901 0.52505 18.4701 0.44505C18.1701 0.36505 17.8701 0.40505 17.5701 0.58505C17.2701 0.78505 17.0701 0.98505 16.9101 1.18505C16.8101 1.30505 16.7101 1.40505 16.6101 1.48505C16.4901 1.58505 16.3701 1.62505 16.2101 1.64505C15.2501 1.78505 13.7301 2.00505 11.6501 2.36505C9.57007 2.70505 7.51007 3.10505 5.49007 3.56505C3.45007 4.00505 2.03007 4.46505 1.21007 4.92505C0.87007 5.18505 0.75007 5.44505 0.85007 5.74505C0.95007 6.02505 1.21007 6.14505 1.63007 6.08505ZM19.4277 14.6451C19.7677 14.5851 20.1877 14.3651 20.6877 14.0451C21.2077 13.7051 21.6677 13.3651 22.1077 13.0251C22.5477 12.6651 22.8077 12.4451 22.9077 12.3251C22.6877 12.8051 22.3677 13.5851 21.9477 14.6051C21.5077 15.6451 21.1677 16.525 20.9277 17.285C20.8277 17.605 20.9077 17.865 21.1277 18.045C21.3477 18.2451 21.5877 18.305 21.8677 18.285C22.1477 18.245 22.3477 18.085 22.4277 17.785C22.8677 15.885 23.7477 13.665 25.0477 11.085C26.3477 8.50505 27.8877 5.84505 29.6677 3.08505C29.8877 2.70505 29.9077 2.38505 29.7277 2.12505C29.5477 1.86505 29.3077 1.72505 28.9877 1.70505C28.6677 1.68505 28.4077 1.82505 28.1877 2.14505C27.2277 3.86505 26.4877 5.18505 26.0077 6.10505C25.6477 6.80505 25.3077 7.40505 25.0077 7.92505C24.7077 8.44505 24.3477 8.98505 23.9477 9.54505C23.3477 10.3851 22.4677 11.305 21.2677 12.265C20.5677 12.845 20.0477 13.165 19.7477 13.265C19.4277 13.3651 19.2277 13.305 19.1877 13.085C19.1477 12.865 19.1677 12.5851 19.2877 12.2251C19.3877 11.8451 19.5277 11.5051 19.6677 11.1651C19.8277 10.8051 19.9477 10.5651 20.0277 10.4051C20.0877 10.2851 20.0477 10.1451 19.9477 10.0051C19.8477 9.86505 19.7077 9.76505 19.5477 9.68505C19.3877 9.60505 19.2277 9.60505 19.1077 9.66505C18.9277 9.76505 18.7077 9.92505 18.4877 10.1251C17.8477 9.50505 17.1477 9.52505 16.3877 10.2051C14.2877 11.9651 13.1077 13.3851 12.8477 14.4851C12.5877 15.5851 12.8877 16.0251 13.7277 15.7851C14.0477 15.6451 14.4677 15.365 14.9877 14.925C15.5277 14.4851 16.0677 14.005 16.6077 13.5251C17.1277 13.0251 17.5677 12.6451 17.9077 12.3651C17.7277 13.265 17.8077 13.8851 18.1277 14.2451C18.4677 14.6051 18.9077 14.7451 19.4277 14.6451ZM15.0077 13.2451L15.2477 12.9651C15.4077 12.7851 15.6077 12.5851 15.8277 12.3651C16.0677 12.1251 16.2677 11.9451 16.4677 11.765C16.6677 11.6051 16.8077 11.5251 16.8877 11.5251C16.8077 11.6251 16.6677 11.765 16.4877 11.9451C16.2877 12.1451 16.0677 12.3451 15.8477 12.5451C15.6277 12.7651 15.4277 12.9251 15.2677 13.0651C15.1077 13.2051 15.0077 13.2651 15.0077 13.2451ZM34.1323 4.52505C34.5923 3.70505 35.0323 3.00505 35.4523 2.40505C35.6923 2.02505 35.8723 1.74505 35.9723 1.56505C36.1123 1.30505 36.0923 1.06505 35.9723 0.84505C35.8323 0.62505 35.6323 0.54505 35.3323 0.56505C35.0523 0.58505 34.7323 0.82505 34.3723 1.26505C30.9923 5.88505 28.2523 10.805 26.1923 16.0251L26.1323 16.1651C25.7923 16.9651 25.4523 17.865 25.1523 18.885C25.0923 19.125 25.1723 19.305 25.3923 19.445C25.5923 19.585 25.8323 19.6451 26.0923 19.625C26.3323 19.625 26.5123 19.5251 26.5923 19.3251C26.8723 18.4451 27.2723 17.4051 27.7523 16.1851C28.2523 14.965 28.6923 13.9251 29.0723 13.0651C29.3723 13.5451 29.9923 13.7851 30.9323 13.765C31.8723 13.745 33.0123 13.5651 34.3323 13.2451C35.6323 12.9051 36.7123 12.5651 37.5123 12.2251C37.7723 12.1051 37.8923 11.965 37.9323 11.765C37.9523 11.5651 37.8723 11.4051 37.7323 11.265C37.5723 11.1451 37.3723 11.1051 37.1123 11.1651C36.3723 11.4451 35.6123 11.6851 34.8323 11.8851C34.0523 12.0851 33.3523 12.245 32.7123 12.345C32.0723 12.4451 31.5123 12.4851 31.0323 12.4651C30.5523 12.4451 30.4523 12.285 30.7323 12.005C31.3723 11.465 32.1723 11.0451 33.1123 10.7251C33.3923 10.6051 33.5123 10.4051 33.5123 10.1451C33.4923 9.88505 33.3923 9.66505 33.1723 9.48505C32.9723 9.30505 32.7123 9.24505 32.4123 9.34505C32.0523 9.48505 31.6723 9.70505 31.2523 10.0051C30.8323 10.2851 30.5323 10.5051 30.3323 10.6651C30.3523 10.4651 30.5723 9.98505 30.9923 9.24505C31.3923 8.48505 31.8323 7.72505 32.2923 6.94505C32.7523 6.18505 33.0723 5.66505 33.2323 5.38505C33.3323 5.24505 33.4123 5.14505 33.4723 5.10505C33.5323 5.06505 33.5923 5.02505 33.6523 5.02505C33.7123 5.00505 33.7923 4.96505 33.8723 4.90505C33.9323 4.84505 34.0323 4.72505 34.1323 4.52505ZM37.6345 9.56505C37.2745 10.005 36.8345 10.6851 36.2945 11.585C35.7545 12.485 35.4945 13.325 35.5145 14.085C35.7345 15.1451 36.2545 15.6651 37.0945 15.6451C37.9345 15.6251 38.8745 15.3251 39.9345 14.7251C40.9945 14.1251 41.9545 13.4851 42.8345 12.7851C43.7145 12.0851 44.2945 11.5851 44.6145 11.2851C44.7945 11.0851 44.8745 10.9251 44.8345 10.7651C44.7945 10.6051 44.7145 10.5051 44.5545 10.4451C44.4145 10.385 44.2545 10.425 44.0945 10.5251C44.0745 10.5451 44.0345 10.5851 43.9545 10.6451C43.6745 10.8651 43.1745 11.2651 42.4345 11.8051C41.6945 12.3451 40.8945 12.8651 40.0145 13.3651C39.1345 13.8651 38.3145 14.165 37.5945 14.265C37.1145 14.305 36.9145 14.1251 36.9945 13.7251C37.0545 13.3251 37.2945 12.8251 37.6745 12.2451C38.0545 11.6451 38.4545 11.0651 38.8945 10.5051C39.0545 10.2451 39.0545 10.0251 38.8945 9.80505C38.7345 9.60505 38.5345 9.46505 38.2745 9.40505C37.9945 9.34505 37.7945 9.38505 37.6345 9.56505ZM38.8145 8.34505C38.7345 8.70505 38.7545 8.92505 38.8745 8.98505C39.0545 9.02505 39.3345 8.92505 39.7145 8.64505C40.0945 8.38505 40.4545 8.06505 40.8145 7.68505C41.1545 7.32505 41.3745 7.00505 41.4745 6.76505C41.5345 6.54505 41.4545 6.40505 41.2345 6.32505C41.0345 6.24505 40.7945 6.20505 40.5345 6.22505C40.2745 6.22505 40.0745 6.28505 39.9545 6.36505C39.7145 6.54505 39.4745 6.84505 39.2745 7.22505C39.0545 7.62505 38.9145 8.00505 38.8145 8.34505ZM44.2612 9.46505C43.3212 11.0451 42.5412 12.5051 41.9212 13.8851C41.8212 14.1651 41.8412 14.4051 41.9812 14.6251C42.1212 14.8251 42.3212 14.9651 42.5412 15.0451C42.7812 15.1251 42.9812 15.0851 43.1612 14.9651C43.3612 14.7651 43.7212 14.385 44.2412 13.845L45.6412 12.425C46.1212 11.9451 46.5212 11.545 46.8412 11.265C47.1812 10.9851 47.3212 10.9051 47.3012 11.0451C47.2412 11.2051 47.1612 11.385 47.0612 11.6051C46.8012 12.125 46.6012 12.6851 46.4412 13.2851C46.2812 13.8851 46.3812 14.3051 46.7812 14.5651C47.4412 14.8451 48.3412 14.665 49.4612 14.085C50.5812 13.485 51.5812 12.8451 52.5012 12.1251C52.7212 11.9451 52.8212 11.7651 52.8212 11.5651C52.8012 11.3651 52.7212 11.2251 52.5612 11.1251C52.4012 11.0451 52.2012 11.0651 51.9812 11.2251C51.9612 11.2251 51.9412 11.2451 51.9412 11.2451C51.7212 11.4051 51.3612 11.6651 50.8212 12.0251C50.3012 12.385 49.7612 12.7051 49.2012 12.9851C48.6412 13.2651 48.2212 13.3651 47.9212 13.2851C47.8412 13.2451 47.8612 13.0451 48.0212 12.7251C48.1612 12.4051 48.3412 12.0451 48.5612 11.6251L49.0012 10.7851C49.1212 10.5251 49.2012 10.3251 49.2412 10.1651C49.2812 9.96505 49.2212 9.74505 49.0812 9.54505C48.9412 9.32505 48.7812 9.16505 48.5612 9.04505C48.3612 8.92505 48.1612 8.88505 47.9812 8.94505C47.7612 9.04505 47.4012 9.30505 46.9212 9.70505C46.4412 10.0851 45.9612 10.5051 45.5012 10.9251C45.0212 11.3451 44.7012 11.6451 44.5012 11.845C44.5012 11.765 44.5612 11.6451 44.6612 11.4651C44.7812 11.3051 44.9212 11.1051 45.0812 10.8651C45.2212 10.6851 45.3612 10.4651 45.5012 10.2651C45.6212 10.0651 45.6012 9.86505 45.4612 9.64505C45.3012 9.44505 45.1012 9.30505 44.8612 9.24505C44.6212 9.18505 44.4212 9.26505 44.2612 9.46505ZM48.8526 25.8251C49.6726 24.8251 50.4726 23.725 51.2326 22.525C51.9126 21.4851 52.4326 20.745 52.8326 20.345L53.9526 19.265C56.4126 16.785 59.4526 14.125 63.0726 11.265C63.3126 11.0651 63.4326 10.8251 63.4126 10.5451C63.4126 10.2851 63.3326 10.0651 63.1726 9.90505C63.0126 9.74505 62.8326 9.74505 62.6126 9.90505C60.6126 11.5251 58.8926 13.005 57.4726 14.345C56.4526 15.265 55.6926 15.9251 55.1526 16.3651C55.3326 16.0851 55.6726 15.4651 56.1526 14.4851C56.6326 13.5251 57.0326 12.5251 57.3726 11.4851C57.7126 10.4451 57.7526 9.68505 57.5126 9.22505C57.3926 9.04505 57.2326 8.96505 57.0526 8.98505C56.8526 9.00505 56.6726 9.06505 56.5126 9.18505L56.1526 9.42505C56.1326 9.42505 56.1326 9.44505 56.1126 9.44505C56.0126 9.38505 55.8926 9.26505 55.7726 9.10505C55.6726 8.98505 55.5726 8.86505 55.4526 8.74505C55.3326 8.64505 55.1926 8.58505 55.0326 8.58505C54.6126 8.62505 54.0526 8.94505 53.3726 9.54505C52.6726 10.1651 52.0126 10.8451 51.3726 11.6251C50.7126 12.4051 50.2126 13.0651 49.8926 13.6251C49.5326 14.2451 49.3926 14.765 49.4526 15.1851C49.5326 15.6051 49.8326 15.7651 50.3526 15.6451C50.7126 15.5251 51.2126 15.205 51.8326 14.6851C52.4526 14.1651 53.0926 13.5851 53.7726 12.9451C54.7326 12.0451 55.5326 11.3451 56.1726 10.8851C55.8326 12.1451 55.3726 13.2851 54.8126 14.3051C54.2326 15.3251 53.5726 16.3451 52.8526 17.4051C52.7326 17.5851 52.5926 17.785 52.4726 17.9851C51.9726 18.6651 51.2726 19.445 50.3926 20.305C49.4326 21.225 48.4726 22.285 47.4926 23.4851C47.2126 23.9051 47.1326 24.3651 47.2726 24.8251C47.3926 25.305 47.6126 25.6451 47.9326 25.885C48.2526 26.125 48.5726 26.1051 48.8526 25.8251Z" fill="#3E3E3E"/>
</svg>
